<?xml version="1.0" encoding="UTF-8" standalone="no"?>
<!DOCTYPE svg PUBLIC "-//W3C//DTD SVG 1.1//EN" "http://www.w3.org/Graphics/SVG/1.1/DTD/svg11.dtd">
<svg width="100%" height="100%" viewBox="0 0 142 142" version="1.1" xmlns="http://www.w3.org/2000/svg" xmlns:xlink="http://www.w3.org/1999/xlink" xml:space="preserve" xmlns:serif="http://www.serif.com/" style="fill-rule:evenodd;clip-rule:evenodd;stroke-linejoin:round;stroke-miterlimit:2;">
    <g transform="matrix(1,0,0,1,-25,-25)">
        <path d="M95.5,25C81.556,25 67.926,29.164 56.332,36.966C44.739,44.768 35.703,55.856 30.366,68.83C25.031,81.803 23.634,96.079 26.355,109.851C29.075,123.624 35.789,136.275 45.649,146.204C55.509,156.134 68.071,162.896 81.746,165.636C95.422,168.375 109.597,166.969 122.479,161.595C135.361,156.222 146.372,147.121 154.119,135.446C161.865,123.77 166,110.042 166,96C166,77.17 158.572,59.11 145.351,45.795C132.13,32.48 114.198,25 95.5,25ZM154.127,96.468C154.13,101.655 152.606,106.726 149.747,111.04C146.888,115.354 142.823,118.717 138.065,120.705C133.308,122.692 128.072,123.214 123.021,122.204C117.969,121.194 113.328,118.697 109.685,115.031C106.042,111.364 103.561,106.693 102.555,101.606C101.549,96.519 102.064,91.246 104.034,86.454C106.004,81.661 109.341,77.565 113.623,74.683C117.905,71.801 122.94,70.262 128.09,70.262C134.993,70.262 141.613,73.023 146.495,77.937C151.378,82.851 154.123,89.516 154.127,96.468ZM141.95,63.065C136.655,60.84 130.909,59.925 125.19,60.394C119.472,60.864 113.949,62.705 109.082,65.764C104.215,68.823 100.146,73.012 97.215,77.979C94.284,82.946 92.577,88.548 92.235,94.315C91.894,100.083 92.929,105.848 95.253,111.131C97.577,116.413 101.123,121.059 105.595,124.679C110.067,128.299 115.334,130.788 120.956,131.938C126.578,133.088 132.393,132.866 137.912,131.29C131.188,136.187 123.222,139.061 114.939,139.579C106.657,140.097 98.399,138.236 91.125,134.214C83.852,130.192 77.861,124.174 73.849,116.858C69.838,109.542 67.97,101.231 68.464,92.888C68.957,84.546 71.792,76.516 76.638,69.733C81.484,62.949 88.143,57.689 95.839,54.565C103.536,51.442 111.955,50.583 120.118,52.087C128.28,53.592 135.851,57.399 141.95,63.065ZM34.902,96.08C34.906,85.386 37.699,74.881 43.002,65.617C48.305,56.352 55.932,48.653 65.118,43.29C74.305,37.927 84.73,35.089 95.348,35.059C105.967,35.03 116.407,37.81 125.623,43.121C121.245,41.997 116.745,41.429 112.228,41.427C104.445,41.42 96.754,43.117 89.686,46.4C82.619,49.682 76.345,54.472 71.297,60.438C66.25,66.405 62.551,73.405 60.456,80.953C58.36,88.502 57.919,96.419 59.162,104.156C60.405,111.894 63.303,119.266 67.656,125.764C72.008,132.262 77.711,137.729 84.369,141.788C91.027,145.847 98.481,148.4 106.216,149.27C113.95,150.141 121.78,149.308 129.164,146.829C120.04,152.974 109.431,156.508 98.468,157.052C87.506,157.597 76.602,155.132 66.923,149.921C57.243,144.71 49.151,136.948 43.511,127.465C37.872,117.982 34.896,107.134 34.902,96.08Z" style="fill:url(#_Linear1);fill-rule:nonzero;"/>
    </g>
    <defs>
        <linearGradient id="_Linear1" x1="0" y1="0" x2="1" y2="0" gradientUnits="userSpaceOnUse" gradientTransform="matrix(-133.125,134.831,-134.831,-133.125,141.312,36.9799)"><stop offset="0" style="stop-color:rgb(198,44,208);stop-opacity:1"/><stop offset="1" style="stop-color:rgb(32,90,218);stop-opacity:1"/></linearGradient>
    </defs>
</svg>
